<?xml version="1.0" encoding="UTF-8"?><svg id="Logo" xmlns="http://www.w3.org/2000/svg" xmlns:xlink="http://www.w3.org/1999/xlink" viewBox="0 0 519.83 461.74"><defs><linearGradient id="Nouvelle_nuance_de_dégradé_1" x1="230.93" y1="237.21" x2="467.91" y2="237.21" gradientUnits="userSpaceOnUse"><stop offset="0" stop-color="#f7a843"/><stop offset=".13" stop-color="#f3a548"/><stop offset=".29" stop-color="#e99c58"/><stop offset=".47" stop-color="#d88e71"/><stop offset=".53" stop-color="#d2897c"/><stop offset=".57" stop-color="#bb887e"/><stop offset=".67" stop-color="#8e8784"/><stop offset=".77" stop-color="#6b8688"/><stop offset=".85" stop-color="#52858b"/><stop offset=".94" stop-color="#43858d"/><stop offset="1" stop-color="#3e858e"/></linearGradient><linearGradient id="Nouvelle_nuance_de_dégradé_1-2" y1="243.98" x2="467.91" y2="243.98" xlink:href="#Nouvelle_nuance_de_dégradé_1"/><linearGradient id="Nouvelle_nuance_de_dégradé_1-3" x1="230.93" y1="235.12" x2="467.91" y2="235.12" xlink:href="#Nouvelle_nuance_de_dégradé_1"/><linearGradient id="Nouvelle_nuance_de_dégradé_1-4" x1="230.93" y1="243.6" x2="467.91" y2="243.6" xlink:href="#Nouvelle_nuance_de_dégradé_1"/><linearGradient id="Nouvelle_nuance_de_dégradé_1-5" x1="230.93" y1="239.02" x2="467.91" y2="239.02" xlink:href="#Nouvelle_nuance_de_dégradé_1"/><linearGradient id="Nouvelle_nuance_de_dégradé_1-6" x1="230.93" y1="239.02" x2="467.91" y2="239.02" xlink:href="#Nouvelle_nuance_de_dégradé_1"/><linearGradient id="Nouvelle_nuance_de_dégradé_1-7" y1="243.6" x2="467.91" y2="243.6" xlink:href="#Nouvelle_nuance_de_dégradé_1"/><linearGradient id="Nouvelle_nuance_de_dégradé_1-8" x1="230.93" y1="294.66" x2="467.91" y2="294.66" xlink:href="#Nouvelle_nuance_de_dégradé_1"/><linearGradient id="Nouvelle_nuance_de_dégradé_1-9" x1="230.93" y1="294.66" x2="467.91" y2="294.66" xlink:href="#Nouvelle_nuance_de_dégradé_1"/><linearGradient id="Nouvelle_nuance_de_dégradé_1-10" x1="230.93" y1="294.16" x2="467.91" y2="294.16" xlink:href="#Nouvelle_nuance_de_dégradé_1"/><linearGradient id="Nouvelle_nuance_de_dégradé_1-11" x1="230.93" y1="294.16" x2="467.91" y2="294.16" xlink:href="#Nouvelle_nuance_de_dégradé_1"/><linearGradient id="Nouvelle_nuance_de_dégradé_1-12" x1="230.93" y1="294.66" x2="467.91" y2="294.66" xlink:href="#Nouvelle_nuance_de_dégradé_1"/><linearGradient id="Nouvelle_nuance_de_dégradé_1-13" x1="230.93" y1="294.66" x2="467.91" y2="294.66" xlink:href="#Nouvelle_nuance_de_dégradé_1"/><linearGradient id="Nouvelle_nuance_de_dégradé_1-14" x1="230.93" y1="294.66" x2="467.91" y2="294.66" xlink:href="#Nouvelle_nuance_de_dégradé_1"/><linearGradient id="Nouvelle_nuance_de_dégradé_1-15" x1="230.93" y1="294.66" x2="467.91" y2="294.66" xlink:href="#Nouvelle_nuance_de_dégradé_1"/><linearGradient id="Nouvelle_nuance_de_dégradé_1-16" x1="230.93" y1="294.16" x2="467.91" y2="294.16" xlink:href="#Nouvelle_nuance_de_dégradé_1"/></defs><g><circle cx="301.22" cy="355.85" r="27.11" fill="#f7a843"/><circle cx="341.04" cy="355.85" r="27.11" fill="#d2897c"/><circle cx="380.85" cy="355.85" r="27.11" fill="#3e858e"/></g><g><path d="M217.53,94.29c-.33-3.72-.59-7.43-.83-11.15-.07-.98-.22-3.32-.18-4.28,.11-2.52,.8-4.99,2.06-7.22,2.74-4.93,8.38-8.31,14.11-8.37,.8-.01,6.03-.2,6.97-.22,7.43-.28,14.87-.34,22.3-.5,17.41-.18,38.48-.25,55.76,.2,1.9,.06,6.74,.07,8.61,.29,8.04,.97,14.68,8.09,14.75,16.18,.09,1.08-.13,3.21-.14,4.29-.41,7.43-.81,14.87-1.47,22.3-.67-7.43-1.06-14.87-1.47-22.3,0,0-.13-2.79-.13-2.79-.06-6.12-4.86-11.8-10.88-12.71-1.19-.19-2.5-.16-3.7-.11,0,0-5.58,.11-5.58,.11-17.24,.44-38.39,.4-55.76,.2-9.69-.17-19.57-.37-29.27-.72-6.73-.46-13.08,4.83-14.02,11.55-.46,5.04-.66,10.19-1.14,15.23h0Z"/><path d="M144.77,101c-.55-2.45-.66-4.97-1.26-7.4-.62-1.87-2.42-3.39-4.28-3.63-1.16-.14-3.34,.17-4.54,.21-13.03,.84-26.08,.85-39.11,.11-2.4,0-4.54,2.09-4.74,4.53,0,0-.14,1.27-.14,1.27-.41,3.39-.81,6.77-1.47,10.16-.74-3.81-1.18-7.61-1.61-11.43-.53-4.46,2.96-8.78,7.45-9.38,2.98-.27,6.16-.34,9.14-.46,11-.32,22.02-.15,33.01,.68,4.32-.02,8.24,3.17,8.56,7.51,.05,2.64-.61,5.22-1.02,7.82h0Z"/><path d="M379.1,154.9c-9.11,9.81-18.27,19.56-27.52,29.23-37.47-39.63-104.69-40.36-142.47-1.19-33.57,33.05-38.62,87.29-12.18,126.2,3.92,5.85,8.48,11.3,13.5,16.27-4.29,4.1-12.05,11.46-16.38,15.53-3.84,3.6-11.68,10.97-15.56,14.55,0,0,7.26-7.8,7.26-7.8,6.5-6.94,15.39-16.34,21.95-23.21,0,0,.02,1.83,.02,1.83-10.07-9.14-18.24-20.44-23.93-32.9-30.89-68.55,20.71-146.35,95.85-144.74,27.44,.41,54.45,12.62,72.77,32.95,0,0-1.69-.02-1.69-.02,9.39-8.97,18.86-17.86,28.37-26.7h0Z"/><path d="M144.67,389.32s-9.32,9.68-9.32,9.68l-.07,.07s-.11,0-.11,0c-14.87,.32-29.75,.46-44.62,.69,0,0-11.18,.15-11.18,.15-4.01,.02-7.99-1.61-10.92-4.38-3.75-3.39-5.43-8.62-5.18-13.6,0,0-.04-2.79-.04-2.79-.08-1.61-.44-47.22-.52-50.2-.52-64.05-.9-136.81-.93-200.81,.15-3.52-.43-8.15,.57-11.86,1.77-7.11,8.2-12.64,15.49-13.35,2.85-.2,12.59-.03,15.64-.07,109.04,.1,225.81,.71,334.68,2.51,0,0,1.13,.02,1.13,.02l-.8,.77s-17.27,16.62-17.27,16.62c0,0,16.62-17.27,16.62-17.27,0,0,.33,.79,.33,.79-108.82,1.77-225.68,2.45-334.68,2.51-1.78,.03-12.29,0-13.92,.03-5.25-.01-10.19,3.84-11.45,8.94-.7,2.27-.31,7.72-.42,10.36-.04,63.98-.4,136.78-.93,200.81,.03,2.64-.54,48.5-.52,50.2,0,0-.04,2.79-.04,2.79,0,.91-.05,1.91,0,2.71,.12,3.36,1.58,6.66,4,9.06,2.41,2.41,5.75,3.91,9.2,3.99,0,0,11.13,.17,11.13,.17,14.87,.24,29.75,.37,44.62,.69,0,0-.18,.08-.18,.08,0,0,9.68-9.31,9.68-9.31h0Z"/><path d="M208.61,325.39c-19.24-18.4-31.23-44.33-31.23-73.06,0-55.85,45.28-101.12,101.12-101.12,28.73,0,54.67,11.99,73.06,31.23" fill="none" stroke="#000" stroke-miterlimit="10" stroke-width="6"/><path d="M208.61,325.39c-19.24-18.4-31.23-44.33-31.23-73.06,0-55.85,45.28-101.12,101.12-101.12,28.73,0,54.67,11.99,73.06,31.23" fill="none" stroke="#000" stroke-miterlimit="10" stroke-width="6"/><path d="M196.87,252.33c-3.96-53.45,48.2-95.12,99.71-82.01,16.22,3.94,30.99,13.22,41.21,25.9-23.58-21.89-58.73-28.99-88.37-16.94-29.91,11.61-50.42,40.97-52.54,73.05h0Z"/></g><g><g><path d="M263.1,268.03l-3.2-14.84h-13.71l-3.2,14.84h-12.69l14.93-61.65h15.31l15.18,61.65h-12.61Zm-5.02-25.13l-3.33-16.32c-.22-1.35-.44-2.67-.65-3.96-.21-1.29-.41-2.54-.59-3.73-.18-1.19-.35-2.31-.48-3.35-.09,.98-.21,2.07-.38,3.25s-.37,2.42-.59,3.71c-.22,1.29-.48,2.6-.76,3.92l-3.29,16.49h10.08Z" fill="url(#Nouvelle_nuance_de_dégradé_1)"/><path d="M301.1,219.92c.62,0,1.22,.05,1.81,.15,.59,.1,1.28,.26,2.07,.49l-1.01,11.98c-.56-.22-1.17-.38-1.84-.46-.66-.09-1.39-.13-2.17-.13-1.3,0-2.45,.28-3.46,.84-1.01,.56-1.86,1.37-2.55,2.43-.69,1.05-1.21,2.32-1.56,3.8-.35,1.47-.53,3.13-.53,4.95v24.08h-11.22v-47.23h8.65l1.6,7.76h.55c.62-1.49,1.39-2.9,2.32-4.22,.93-1.32,2.01-2.39,3.25-3.2,1.24-.82,2.6-1.22,4.09-1.22Z" fill="url(#Nouvelle_nuance_de_dégradé_1-2)"/><path d="M316.24,202.21c2.11,0,3.65,.55,4.64,1.66,.98,1.11,1.48,2.72,1.48,4.83,0,2.05-.51,3.62-1.54,4.7-1.02,1.08-2.55,1.63-4.57,1.63s-3.49-.54-4.55-1.63c-1.07-1.08-1.6-2.65-1.6-4.7,0-2.16,.5-3.79,1.5-4.87,1-1.08,2.55-1.62,4.66-1.62Zm5.61,18.6v47.23s-11.22,0-11.22,0v-47.23h11.22Z" fill="url(#Nouvelle_nuance_de_dégradé_1-3)"/><path d="M346.98,219.16c3.54,0,6.54,.87,9,2.62,2.46,1.74,4.32,4.21,5.59,7.4,1.27,3.19,1.9,6.97,1.9,11.32v6.32h-22.52c.06,4.14,.82,7.18,2.28,9.13,1.46,1.95,3.7,2.93,6.7,2.93,2,0,3.89-.26,5.67-.78,1.78-.52,3.69-1.41,5.71-2.68v9.36c-1.89,1.12-3.9,1.94-6.03,2.47-2.14,.52-4.44,.78-6.92,.78-4.33,0-7.86-.98-10.59-2.93-2.73-1.95-4.72-4.74-5.99-8.35-1.27-3.61-1.9-7.91-1.9-12.88,0-5.32,.64-9.81,1.92-13.47,1.28-3.67,3.18-6.46,5.71-8.37,2.53-1.91,5.68-2.87,9.45-2.87Zm.25,8.81c-1.86,0-3.33,.84-4.43,2.51-1.1,1.67-1.69,4.41-1.77,8.2h12.02c0-2.22-.23-4.13-.67-5.74-.45-1.6-1.11-2.83-1.98-3.69-.87-.86-1.93-1.29-3.16-1.29Z" fill="url(#Nouvelle_nuance_de_dégradé_1-4)"/><path d="M386.87,258.21c.79,0,1.63-.11,2.51-.32,.89-.21,1.81-.54,2.76-.99v8.98c-1.24,.71-2.59,1.24-4.07,1.61-1.48,.36-3.04,.55-4.7,.55-2.7,0-4.9-.54-6.6-1.62-1.7-1.08-2.95-2.73-3.73-4.94-.79-2.21-1.18-5-1.18-8.37v-23.83h-4.64v-6.03s5.52-2.95,5.52-2.95l2.66-10.29h7.68s0,9.95,0,9.95h8.47v9.32h-8.47v23.41c0,1.86,.29,3.24,.86,4.15,.58,.91,1.55,1.37,2.93,1.37Z" fill="url(#Nouvelle_nuance_de_dégradé_1-5)"/><path d="M414.24,258.21c.79,0,1.63-.11,2.51-.32,.89-.21,1.81-.54,2.76-.99v8.98c-1.24,.71-2.59,1.24-4.07,1.61-1.48,.36-3.04,.55-4.7,.55-2.7,0-4.9-.54-6.6-1.62-1.7-1.08-2.95-2.73-3.73-4.94-.79-2.21-1.18-5-1.18-8.37v-23.83h-4.64v-6.03s5.52-2.95,5.52-2.95l2.66-10.29h7.68v9.95h8.47v9.32s-8.47,0-8.47,0v23.41c0,1.86,.29,3.24,.86,4.15,.58,.91,1.55,1.37,2.93,1.37Z" fill="url(#Nouvelle_nuance_de_dégradé_1-6)"/><path d="M441.19,219.16c3.54,0,6.54,.87,9,2.62,2.46,1.74,4.32,4.21,5.59,7.4,1.27,3.19,1.9,6.97,1.9,11.32v6.32h-22.52c.06,4.14,.82,7.18,2.28,9.13,1.46,1.95,3.7,2.93,6.7,2.93,2,0,3.89-.26,5.67-.78,1.78-.52,3.69-1.41,5.71-2.68v9.36c-1.89,1.12-3.9,1.94-6.03,2.47-2.14,.52-4.44,.78-6.92,.78-4.33,0-7.86-.98-10.59-2.93-2.73-1.95-4.72-4.74-5.99-8.35-1.27-3.61-1.9-7.91-1.9-12.88,0-5.32,.64-9.81,1.92-13.47,1.28-3.67,3.18-6.46,5.71-8.37,2.53-1.91,5.68-2.87,9.45-2.87Zm.25,8.81c-1.86,0-3.33,.84-4.43,2.51-1.1,1.67-1.69,4.41-1.77,8.2h12.02c0-2.22-.23-4.13-.67-5.74-.45-1.6-1.11-2.83-1.98-3.69-.87-.86-1.93-1.29-3.16-1.29Z" fill="url(#Nouvelle_nuance_de_dégradé_1-7)"/></g><g><path d="M252.38,294.01c0,3.94-.54,7.27-1.63,9.99-1.09,2.72-2.67,4.78-4.75,6.19-2.08,1.41-4.64,2.11-7.66,2.11h-8.3v-35.28h8.81c2.9,0,5.35,.65,7.37,1.96,2.02,1.3,3.55,3.22,4.6,5.74,1.05,2.53,1.57,5.62,1.57,9.29Zm-6.97,.31c0-2.64-.25-4.8-.75-6.49s-1.24-2.93-2.23-3.74c-.99-.8-2.22-1.21-3.68-1.21h-1.93v23.48h1.47c2.44,0,4.24-.99,5.39-2.97,1.15-1.98,1.73-5,1.73-9.07Z" fill="url(#Nouvelle_nuance_de_dégradé_1-8)"/><path d="M273.52,312.3h-15.85v-35.28s15.85,0,15.85,0v5.77h-9.07v8.3s8.44,0,8.44,0v5.79h-8.44v9.53h9.07v5.89Z" fill="url(#Nouvelle_nuance_de_dégradé_1-9)"/><path d="M295.77,301.49c0,2.12-.43,4-1.28,5.62-.85,1.63-2.06,2.9-3.61,3.81-1.55,.92-3.38,1.37-5.49,1.37-.98,0-1.93-.06-2.85-.18-.92-.12-1.82-.32-2.7-.6-.88-.28-1.77-.66-2.65-1.12v-6.92c1.29,.84,2.62,1.47,4.01,1.91,1.38,.44,2.66,.65,3.84,.65,.87,0,1.59-.17,2.16-.51,.57-.34,1-.8,1.28-1.38,.28-.58,.42-1.23,.42-1.96,0-.77-.12-1.45-.36-2.04-.24-.59-.7-1.17-1.39-1.76-.68-.59-1.68-1.27-3-2.04-1.03-.61-1.96-1.24-2.79-1.88-.83-.64-1.54-1.35-2.12-2.13-.59-.78-1.03-1.68-1.34-2.71-.31-1.03-.46-2.24-.46-3.64-.02-1.99,.37-3.74,1.17-5.24,.8-1.5,1.95-2.66,3.45-3.49,1.5-.83,3.31-1.23,5.42-1.22,1.43,0,2.84,.19,4.21,.58,1.38,.39,2.7,.93,3.97,1.64l-1.86,5.98c-1.14-.69-2.22-1.2-3.23-1.53-1.01-.33-1.96-.5-2.85-.5-.77,0-1.42,.15-1.94,.45-.52,.3-.92,.7-1.18,1.22-.26,.51-.4,1.1-.4,1.76,0,.84,.13,1.54,.39,2.12s.74,1.14,1.46,1.7c.72,.55,1.75,1.22,3.1,1.99,1.46,.85,2.69,1.76,3.67,2.71,.98,.96,1.72,2.03,2.22,3.21,.5,1.18,.75,2.55,.75,4.11Z" fill="url(#Nouvelle_nuance_de_dégradé_1-10)"/><path d="M312.51,281.87c-1.03,0-1.93,.31-2.7,.92-.77,.61-1.41,1.48-1.92,2.59-.51,1.12-.88,2.43-1.13,3.95-.25,1.51-.37,3.16-.37,4.95,0,2.62,.25,4.84,.75,6.65,.5,1.81,1.23,3.18,2.19,4.11s2.14,1.4,3.52,1.4c1.09,0,2.13-.18,3.11-.55,.98-.37,1.95-.81,2.92-1.33v6.03c-1.01,.56-2.1,.99-3.27,1.28-1.17,.29-2.42,.43-3.75,.43-2.65,0-4.91-.7-6.77-2.11-1.86-1.41-3.28-3.46-4.26-6.15-.98-2.7-1.47-5.96-1.47-9.81,0-2.64,.28-5.06,.83-7.28,.56-2.21,1.37-4.13,2.45-5.77,1.08-1.63,2.4-2.9,3.97-3.8,1.57-.9,3.37-1.35,5.39-1.35,1.42,0,2.78,.18,4.1,.53s2.59,.9,3.81,1.64l-1.93,5.6c-.87-.6-1.75-1.07-2.63-1.41-.89-.35-1.83-.52-2.85-.52Z" fill="url(#Nouvelle_nuance_de_dégradé_1-11)"/><path d="M346.56,312.3h-6.78v-15.42h-8.73v15.42h-6.78v-35.28h6.78v13.97h8.73s0-13.97,0-13.97h6.78s0,35.28,0,35.28Z" fill="url(#Nouvelle_nuance_de_dégradé_1-12)"/><path d="M368.49,312.3l-1.83-8.49h-7.84s-1.83,8.49-1.83,8.49h-7.26l8.54-35.28h8.76s8.69,35.28,8.69,35.28h-7.21Zm-2.87-14.38l-1.91-9.34c-.13-.77-.25-1.53-.37-2.27-.12-.74-.23-1.45-.34-2.14-.1-.68-.2-1.32-.28-1.92-.05,.56-.12,1.18-.22,1.86s-.21,1.38-.34,2.12-.27,1.49-.43,2.24l-1.88,9.43h5.77Z" fill="url(#Nouvelle_nuance_de_dégradé_1-13)"/><path d="M392.02,312.3l-6.97-26.04h-.19c.08,1.08,.14,2.09,.19,3.04,.05,.95,.08,1.82,.11,2.63,.02,.8,.04,1.53,.04,2.17v18.19h-6.32v-35.28h9.34l6.51,24.15h.17l6.51-24.15h9.29v35.28s-6.47,0-6.47,0v-18.24c0-.72,.01-1.48,.04-2.28,.02-.8,.06-1.65,.1-2.56,.04-.91,.09-1.88,.16-2.91h-.19s-7.02,25.99-7.02,25.99h-5.28Z" fill="url(#Nouvelle_nuance_de_dégradé_1-14)"/><path d="M425.96,277.02c3.59,0,6.25,.93,8,2.79,1.74,1.86,2.62,4.56,2.62,8.12,0,1.79-.22,3.41-.66,4.86-.44,1.46-1.11,2.71-2.01,3.75-.9,1.05-2.04,1.85-3.4,2.41-1.37,.56-2.98,.84-4.85,.84h-1.86v12.5h-6.78v-35.28h8.95Zm-.51,5.77h-1.66v11.22s1.18,0,1.18,0c1.08,0,1.98-.2,2.7-.6,.73-.4,1.27-1.04,1.64-1.93,.37-.88,.56-2.05,.56-3.5,0-1.8-.37-3.12-1.1-3.95-.73-.83-1.84-1.24-3.32-1.24Z" fill="url(#Nouvelle_nuance_de_dégradé_1-15)"/><path d="M458.25,301.49c0,2.12-.43,4-1.28,5.62-.85,1.63-2.06,2.9-3.61,3.81-1.55,.92-3.38,1.37-5.49,1.37-.98,0-1.93-.06-2.85-.18-.92-.12-1.82-.32-2.7-.6-.88-.28-1.77-.66-2.65-1.12v-6.92c1.29,.84,2.62,1.47,4.01,1.91,1.38,.44,2.66,.65,3.84,.65,.87,0,1.59-.17,2.16-.51,.57-.34,1-.8,1.28-1.38,.28-.58,.42-1.23,.42-1.96,0-.77-.12-1.45-.36-2.04-.24-.59-.7-1.17-1.39-1.76-.68-.59-1.68-1.27-3-2.04-1.03-.61-1.96-1.24-2.79-1.88-.83-.64-1.54-1.35-2.12-2.13-.59-.78-1.03-1.68-1.34-2.71-.31-1.03-.46-2.24-.46-3.64-.02-1.99,.37-3.74,1.17-5.24,.8-1.5,1.95-2.66,3.45-3.49,1.5-.83,3.31-1.23,5.42-1.22,1.43,0,2.84,.19,4.21,.58,1.38,.39,2.7,.93,3.97,1.64l-1.86,5.98c-1.14-.69-2.22-1.2-3.23-1.53-1.01-.33-1.96-.5-2.85-.5-.77,0-1.42,.15-1.94,.45-.52,.3-.92,.7-1.18,1.22-.26,.51-.4,1.1-.4,1.76s.13,1.54,.39,2.12,.74,1.14,1.46,1.7c.72,.55,1.75,1.22,3.1,1.99,1.46,.85,2.69,1.76,3.67,2.71,.98,.96,1.72,2.03,2.22,3.21,.5,1.18,.75,2.55,.75,4.11Z" fill="url(#Nouvelle_nuance_de_dégradé_1-16)"/></g></g></svg>